<?xml version="1.0" encoding="utf-8"?>
<!-- Generator: Adobe Illustrator 16.0.0, SVG Export Plug-In . SVG Version: 6.00 Build 0)  -->
<!DOCTYPE svg PUBLIC "-//W3C//DTD SVG 1.1//EN" "http://www.w3.org/Graphics/SVG/1.1/DTD/svg11.dtd">
<svg version="1.1" id="Layer_1" xmlns="http://www.w3.org/2000/svg" xmlns:xlink="http://www.w3.org/1999/xlink" x="0px" y="0px"
	 width="1115px" height="700px" viewBox="0 0 1115 700" enable-background="new 0 0 1115 700" xml:space="preserve">
<polyline fill="none" stroke="#FF0000" stroke-width="5" stroke-miterlimit="10" points="1070,432.333 800.667,479 744,462.333
	652.667,482.333 677.333,491.667 212,561 61.335,432.333 "/>
<polyline fill="none" stroke="#FF0000" stroke-width="5" stroke-miterlimit="10" points="1070,457 226,627.667 175.5,625.5
	168.5,621.5 55,457 58.5,432.333 "/>
<line fill="none" stroke="#FF0000" stroke-width="5" stroke-miterlimit="10" x1="61.335" y1="430" x2="257" y2="378.5"/>
<polyline fill="none" stroke="#FF0000" stroke-width="5" stroke-miterlimit="10" points="291.5,444 408,423 520.5,450 "/>
<path fill="none" stroke="#FF0000" stroke-width="5" stroke-miterlimit="10" d="M212,564.5"/>
<polyline fill="none" stroke="#FF0000" stroke-width="5" stroke-miterlimit="10" points="259.5,378.75 264,344.125 291.5,335.5
	291.5,317 345.5,301 345.5,290 345.5,275 360.5,255 520.5,219.5 "/>
<polyline fill="none" stroke="#FF0000" stroke-width="5" stroke-miterlimit="10" points="594.25,223.5 699.375,249.5 713.438,285.5
	739.469,291.5 752.484,316 773.492,320.5 775.746,328 824.5,339 824.5,372 1066.5,428.5 1072.5,456.5 "/>
<polygon fill="none" stroke="#FF0000" stroke-width="5" stroke-linejoin="bevel" stroke-miterlimit="10" points="326.5,357
	488,327.5 640.5,357 687,353 506.75,311.5 332,346.5 "/>
<polyline fill="none" stroke="#FF0000" stroke-width="5" stroke-miterlimit="10" points="318.5,316.5 514,274.5 719,320.5 "/>
<polyline fill="none" stroke="#FF0000" stroke-width="5" stroke-miterlimit="10" points="362.5,274.5 524,245.5 659,274.5 "/>
<polyline fill="none" stroke="#FF0000" stroke-width="5" stroke-miterlimit="10" points="520.5,217 520.5,181 386.5,162.5
	382,120.5 546.75,92.5 710.5,115.5 710.5,158 591,180 592,223.5 "/>
<polyline fill="none" stroke="#FF0000" stroke-width="5" stroke-miterlimit="10" points="658.5,106 658.5,97 649.5,76.5 672,56.5
	689.5,77.5 682,92.5 681,108.5 "/>
<polyline fill="none" stroke="#FF0000" stroke-width="5" stroke-miterlimit="10" points="408.5,111 408.5,102 399.5,81.5 422,61.5
	439.5,82.5 432,97.5 431,113.5 "/>
<polyline fill="none" stroke="#FF0000" stroke-width="5" stroke-miterlimit="10" points="518.5,95 518.5,80.5 491.5,80.5
	491.5,69.5 602.5,69.5 602.5,79 579,79.5 578.5,92.5 "/>
<polyline fill="none" stroke="#FF0000" stroke-width="5" stroke-miterlimit="10" points="565.5,93 565.5,80.5 529.5,80.5 529.5,93
	"/>
</svg>
